<svg
  fill="none"
  height="48"
  viewBox="0 0 48 48"
  width="48"
  xmlns="http://www.w3.org/2000/svg"
>
  <rect fill="#FF385C" height="48" rx="24" width="48" />
  <path
    clipRule="evenodd"
    d="M22.7394 14.2849C23.1345 14.0972 23.5646 14 24 14C24.4354 14 24.8655 14.0972 25.2606 14.2849C25.6556 14.4726 26.0061 14.7463 26.2878 15.087C26.5694 15.4276 26.7754 15.8271 26.8914 16.2577C27.0075 16.6882 27.0308 17.1395 26.9598 17.5803L25.6025 25.9393C25.4719 26.7431 24.7942 27.3323 24 27.3323C23.2058 27.3323 22.5281 26.7431 22.3975 25.9393L21.0402 17.5803C20.9692 17.1395 20.9925 16.6882 21.1086 16.2577C21.2246 15.8271 21.4306 15.4276 21.7122 15.087C21.9939 14.7463 22.3444 14.4726 22.7394 14.2849Z"
    fill="#FEFEFE"
    fillRule="evenodd"
  />
  <path
    clipRule="evenodd"
    d="M21.8334 31.7774C21.8334 30.5499 22.8032 29.5548 23.9995 29.5548C25.1958 29.5548 26.1656 30.5499 26.1656 31.7774C26.1656 33.0049 25.1958 34 23.9995 34C22.8032 34 21.8334 33.0049 21.8334 31.7774Z"
    fill="#FEFEFE"
    fillRule="evenodd"
  />
</svg>