<svg
  fill="none"
  height="48"
  viewBox="0 0 48 48"
  width="48"
  xmlns="http://www.w3.org/2000/svg"
>
  <rect fill="#23BC90" height="48" rx="24" width="48" />
  <path
    d="M32.0943 16C31.8452 16 31.5984 16.0539 31.3679 16.1588C31.1373 16.2637 30.9272 16.4178 30.7498 16.6127L21.3132 26.9753L17.2698 22.5355C17.0942 22.3368 16.885 22.1788 16.6545 22.0701C16.4227 21.9608 16.1737 21.9034 15.922 21.901C15.6703 21.8986 15.4205 21.9512 15.187 22.0561C14.9535 22.161 14.7408 22.3162 14.5615 22.5131C14.3821 22.71 14.2398 22.9448 14.1432 23.204C14.0466 23.4632 13.9979 23.7413 14.0001 24.0221C14.0023 24.3028 14.0554 24.5799 14.1561 24.8372C14.2561 25.093 14.401 25.3237 14.582 25.5165L19.9021 31.3571C20.0883 31.5616 20.3089 31.7232 20.5509 31.8333C20.793 31.9435 21.0522 32 21.3137 32C21.5752 32 21.8343 31.9435 22.0764 31.8333C22.3185 31.7232 22.5391 31.5615 22.7253 31.357L33.4387 19.5934C33.797 19.1999 34 18.664 34 18.103C34 17.542 33.797 17.0061 33.4388 16.6127C33.2614 16.4178 33.0513 16.2637 32.8207 16.1588C32.5902 16.0539 32.3433 16 32.0943 16Z"
    fill="#FEFEFE"
  />
</svg>