<svg
  fill="none"
  height="20"
  viewBox="0 0 20 20"
  width="20"
  xmlns="http://www.w3.org/2000/svg"
>
  <path
    clipRule="evenodd"
    d="M10 20C15.5229 20 20 15.5228 20 10C20 4.47715 15.5229 0 10 0C4.47705 0 0 4.47715 0 10C0 15.5228 4.47705 20 10 20Z"
    fill="#EC9228"
    fillRule="evenodd"
  />
  <path
    clipRule="evenodd"
    d="M9.36972 5.14247C9.56725 5.04861 9.78232 5 10 5C10.2177 5 10.4327 5.04861 10.6303 5.14247C10.8278 5.23632 11.0031 5.37316 11.1439 5.54349C11.2847 5.71382 11.3877 5.91356 11.4457 6.12883C11.5037 6.3441 11.5154 6.56976 11.4799 6.79013L10.8012 10.9697C10.736 11.3716 10.3971 11.6661 10 11.6661C9.60292 11.6661 9.26404 11.3716 9.19877 10.9697L8.52008 6.79013C8.48458 6.56976 8.49625 6.3441 8.55428 6.12883C8.61231 5.91356 8.71531 5.71382 8.85612 5.54349C8.99694 5.37316 9.17219 5.23632 9.36972 5.14247Z"
    fill="#FEFEFE"
    fillRule="evenodd"
  />
  <path
    clipRule="evenodd"
    d="M8.91671 13.8887C8.91671 13.275 9.4016 12.7774 9.99975 12.7774C10.5979 12.7774 11.0828 13.275 11.0828 13.8887C11.0828 14.5025 10.5979 15 9.99975 15C9.4016 15 8.91671 14.5025 8.91671 13.8887Z"
    fill="#FEFEFE"
    fillRule="evenodd"
  />
</svg>